<?xml version="1.0" standalone="no"?>
<!DOCTYPE svg PUBLIC "-//W3C//DTD SVG 20010904//EN"
 "http://www.w3.org/TR/2001/REC-SVG-20010904/DTD/svg10.dtd">
<svg version="1.0" xmlns="http://www.w3.org/2000/svg"
 width="383.000000pt" height="134.000000pt" viewBox="0 0 383.000000 134.000000"
 preserveAspectRatio="xMidYMid meet">

<g transform="translate(0.000000,134.000000) scale(0.100000,-0.100000)"
fill="#000000" stroke="none">
<path d="M20 685 l0 -635 130 0 130 0 0 635 0 635 -130 0 -130 0 0 -635z"/>
<path d="M2902 1250 c-45 -28 -72 -76 -72 -131 0 -152 207 -209 284 -79 18 32
18 32 -2 21 -11 -6 -37 -11 -57 -11 -98 0 -156 104 -105 188 18 29 18 32 2 32
-9 0 -32 -9 -50 -20z"/>
<path d="M1553 815 c-23 -7 -65 -29 -93 -49 l-50 -36 0 40 0 40 -130 0 -130 0
0 -380 0 -380 130 0 130 0 0 226 c0 254 5 276 69 320 25 17 49 24 84 24 58 0
92 -20 118 -71 17 -35 19 -60 19 -269 l0 -230 130 0 130 0 0 96 0 97 26 -39
c79 -118 178 -174 310 -174 80 0 142 20 204 65 l50 37 0 -41 0 -41 130 0 130
0 0 380 0 380 -130 0 -130 0 0 -35 c0 -38 -10 -44 -31 -19 -21 26 -83 52 -151
65 -76 14 -165 2 -235 -32 -54 -26 -135 -104 -152 -148 -16 -38 -27 -39 -36
-3 -32 131 -240 225 -392 177z m908 -231 c34 -17 77 -68 85 -100 12 -47 -1
-129 -26 -164 -27 -39 -90 -69 -143 -70 -140 -1 -222 154 -147 277 45 74 147
99 231 57z"/>
<path d="M3577 816 c-48 -18 -112 -62 -138 -94 l-19 -25 0 57 0 56 -130 0
-130 0 0 -380 0 -380 130 0 130 0 0 213 c0 203 1 216 23 257 32 61 75 83 154
77 35 -3 74 -12 88 -21 l25 -16 54 109 c30 60 52 112 48 116 -35 35 -175 54
-235 31z"/>
<path d="M307 804 c-10 -11 -8 -408 3 -492 18 -135 88 -222 208 -259 84 -26
315 -25 396 1 85 28 135 70 171 141 l30 60 3 278 3 277 -130 0 -130 0 -3 -237
c-3 -201 -6 -243 -20 -269 -44 -81 -191 -85 -243 -8 -18 26 -20 52 -25 269
l-5 240 -126 3 c-69 1 -128 -1 -132 -4z"/>
<path d="M2850 430 l0 -380 130 0 130 0 0 380 0 380 -130 0 -130 0 0 -380z"/>
</g>
</svg>
